<?xml version="1.0" encoding="UTF-8" standalone="no"?>
<!DOCTYPE svg PUBLIC "-//W3C//DTD SVG 1.1//EN"
 "http://www.w3.org/Graphics/SVG/1.1/DTD/svg11.dtd">
<!-- Generated by graphviz version 2.43.0 (0)
 -->
<!-- Title: %3 Pages: 1 -->
<svg width="452pt" height="241pt"
 viewBox="0.00 0.00 452.13 241.22" xmlns="http://www.w3.org/2000/svg" xmlns:xlink="http://www.w3.org/1999/xlink">
<g id="graph0" class="graph" transform="scale(1 1) rotate(0) translate(4 237.22)">
<title>%3</title>
<polygon fill="white" stroke="transparent" points="-4,4 -4,-237.22 448.13,-237.22 448.13,4 -4,4"/>
<!-- EE11 -->
<g id="node1" class="node">
<title>EE11</title>
<ellipse fill="none" stroke="black" cx="226.02" cy="-206.35" rx="115.93" ry="26.74"/>
<text text-anchor="middle" x="226.02" y="-210.15" font-family="Times,serif" font-size="14.00">🦅 EagleEye11</text>
<text text-anchor="middle" x="226.02" y="-195.15" font-family="Times,serif" font-size="14.00">SIEM / Control / Ops</text>
</g>
<!-- SK -->
<g id="node2" class="node">
<title>SK</title>
<ellipse fill="none" stroke="black" cx="109.02" cy="-116.61" rx="89.19" ry="26.74"/>
<text text-anchor="middle" x="109.02" y="-120.41" font-family="Times,serif" font-size="14.00">🦂 SkorpiOm</text>
<text text-anchor="middle" x="109.02" y="-105.41" font-family="Times,serif" font-size="14.00">Offensive (Kali)</text>
</g>
<!-- EE11&#45;&gt;SK -->
<g id="edge1" class="edge">
<title>EE11&#45;&gt;SK</title>
<path fill="none" stroke="black" d="M192.8,-180.44C179.36,-170.36 163.71,-158.63 149.61,-148.05"/>
<polygon fill="black" stroke="black" points="151.61,-145.17 141.5,-141.97 147.41,-150.77 151.61,-145.17"/>
</g>
<!-- KR -->
<g id="node3" class="node">
<title>KR</title>
<ellipse fill="none" stroke="black" cx="111.02" cy="-26.87" rx="111.03" ry="26.74"/>
<text text-anchor="middle" x="111.02" y="-30.67" font-family="Times,serif" font-size="14.00">🧠 Krypton1t3</text>
<text text-anchor="middle" x="111.02" y="-15.67" font-family="Times,serif" font-size="14.00">Hybrid Workstation</text>
</g>
<!-- EE11&#45;&gt;KR -->
<g id="edge2" class="edge">
<title>EE11&#45;&gt;KR</title>
<path fill="none" stroke="black" d="M227.54,-179.31C227.75,-154.35 224.64,-116.61 207.02,-89.74 198.23,-76.34 185.42,-65.24 172.01,-56.32"/>
<polygon fill="black" stroke="black" points="173.48,-53.11 163.15,-50.77 169.77,-59.04 173.48,-53.11"/>
</g>
<!-- JY -->
<g id="node4" class="node">
<title>JY</title>
<ellipse fill="none" stroke="black" cx="343.02" cy="-116.61" rx="89.19" ry="26.74"/>
<text text-anchor="middle" x="343.02" y="-120.41" font-family="Times,serif" font-size="14.00">🐾 Jynx13</text>
<text text-anchor="middle" x="343.02" y="-105.41" font-family="Times,serif" font-size="14.00">OSINT / Mobile</text>
</g>
<!-- EE11&#45;&gt;JY -->
<g id="edge3" class="edge">
<title>EE11&#45;&gt;JY</title>
<path fill="none" stroke="black" d="M259.23,-180.44C272.67,-170.36 288.32,-158.63 302.43,-148.05"/>
<polygon fill="black" stroke="black" points="304.63,-150.77 310.53,-141.97 300.43,-145.17 304.63,-150.77"/>
</g>
<!-- SK&#45;&gt;KR -->
<g id="edge4" class="edge">
<title>SK&#45;&gt;KR</title>
<path fill="none" stroke="black" d="M109.62,-89.29C109.8,-81.32 110,-72.43 110.19,-63.94"/>
<polygon fill="black" stroke="black" points="113.69,-63.95 110.42,-53.87 106.7,-63.79 113.69,-63.95"/>
</g>
<!-- SS -->
<g id="node5" class="node">
<title>SS</title>
<ellipse fill="none" stroke="black" cx="343.02" cy="-26.87" rx="101.23" ry="26.74"/>
<text text-anchor="middle" x="343.02" y="-30.67" font-family="Times,serif" font-size="14.00">🔥 SuperStick</text>
<text text-anchor="middle" x="343.02" y="-15.67" font-family="Times,serif" font-size="14.00">Multi&#45;boot Toolkit</text>
</g>
<!-- JY&#45;&gt;SS -->
<g id="edge5" class="edge">
<title>JY&#45;&gt;SS</title>
<path fill="none" stroke="black" d="M336.8,-89.76C336.3,-81.71 336.15,-72.68 336.36,-64.06"/>
<polygon fill="black" stroke="black" points="339.87,-63.98 336.79,-53.84 332.87,-63.68 339.87,-63.98"/>
</g>
<!-- SS&#45;&gt;JY -->
<g id="edge6" class="edge">
<title>SS&#45;&gt;JY</title>
<path fill="none" stroke="black" d="M349.24,-53.84C349.74,-61.9 349.88,-70.93 349.67,-79.55"/>
<polygon fill="black" stroke="black" points="346.16,-79.62 349.23,-89.76 353.16,-79.92 346.16,-79.62"/>
</g>
</g>
</svg>
