<svg width="1600" height="1000" viewBox="0 0 1600 1000" xmlns="http://www.w3.org/2000/svg">
<defs>
  <marker id="arrow" markerWidth="10" markerHeight="10" refX="8" refY="3" orient="auto" markerUnits="strokeWidth">
    <path d="M0,0 L0,6 L9,3 z" fill="#7d8ca0"/>
  </marker>
  <style>
    .title { font: 700 46px DejaVu Sans, Arial; fill: #eef2f7; }
    .sub { font: 22px DejaVu Sans, Arial; fill: #a0aec0; }
    .nodeTitle { font: 700 25px DejaVu Sans, Arial; fill: #eef2f7; }
    .body { font: 18px DejaVu Sans, Arial; fill: #eef2f7; }
    .muted { font: 18px DejaVu Sans, Arial; fill: #a0aec0; }
    .small { font: 15px DejaVu Sans, Arial; fill: #a0aec0; }
    .badge { font: 700 16px DejaVu Sans, Arial; fill: #eef2f7; }
    .arrow { stroke: #7d8ca0; stroke-width: 4; marker-end: url(#arrow); fill: none; }
  </style>
</defs>
<rect width="1600" height="1000" fill="#0c1018"/>
<text x="70" y="90" class="title">🦂 The Burrow — Lab Architecture vNext</text>
<text x="74" y="130" class="sub">Separation of roles = clarity of signal | OSINT • Attack • Detection • Forge • Future RF</text>
<rect x="45" y="180" width="1500" height="640" rx="34" fill="#0f1520" stroke="#2b374b" stroke-width="2"/>
<text x="70" y="215" class="badge" fill="#a0aec0">Operational Map</text>

<rect x="80" y="330" width="300" height="230" rx="24" fill="#171f2d" stroke="#e25822" stroke-width="3"/>
<text x="104" y="365" class="nodeTitle">🐉 SkorpiOm</text><text x="104" y="395" class="muted">Primary Attacker Platform</text>
<text x="108" y="430" class="body">• Kali Linux</text><text x="108" y="458" class="body">• Nmap / Metasploit / payloads</text><text x="108" y="486" class="body">• Primary attack telemetry</text>

<rect x="650" y="330" width="300" height="230" rx="24" fill="#171f2d" stroke="#7b5cfa" stroke-width="3"/>
<text x="674" y="365" class="nodeTitle">🧪 Krypton1t3</text><text x="674" y="395" class="muted">Hermes Forge / Target</text>
<text x="678" y="430" class="body">• Testbed + controlled target</text><text x="678" y="458" class="body">• Attack simulation</text><text x="678" y="486" class="body">• Behavioral validation</text>

<rect x="1220" y="330" width="300" height="230" rx="24" fill="#171f2d" stroke="#52b788" stroke-width="3"/>
<text x="1244" y="365" class="nodeTitle">🖥️ EagleEye11</text><text x="1244" y="395" class="muted">Hermes Ops / SIEM Core</text>
<text x="1248" y="430" class="body">• Splunk + Wazuh</text><text x="1248" y="458" class="body">• Twingate anchor</text><text x="1248" y="486" class="body">• Detection + analysis</text>

<rect x="430" y="650" width="740" height="130" rx="24" fill="#171f2d" stroke="#f59e0b" stroke-width="3"/>
<text x="454" y="685" class="nodeTitle">💻 Jynx13 — SuperStick Mobile Node</text><text x="454" y="715" class="muted">Portable multi-role cyber platform</text>
<text x="458" y="750" class="body">• macOS clean OSINT | Parrot anonymous OSINT | Kali mobile attacker | Dragon OS RF future</text>

<line x1="380" y1="445" x2="650" y2="445" class="arrow" stroke="#e25822"/>
<line x1="950" y1="445" x2="1220" y2="445" class="arrow" stroke="#52b788"/>
<line x1="800" y1="650" x2="800" y2="560" class="arrow" stroke="#f59e0b"/>
<line x1="430" y1="710" x2="300" y2="560" class="arrow" stroke="#f59e0b"/>
<line x1="1170" y1="700" x2="1220" y2="560" class="arrow" stroke="#52b788"/>

<text x="505" y="430" class="badge">attacks</text>
<text x="1040" y="430" class="badge">logs / telemetry</text>
<text x="825" y="610" class="badge">field attacks</text>
<text x="315" y="650" class="badge">OSINT intel</text>
<text x="1190" y="635" class="badge">optional evidence</text>

<rect x="440" y="835" width="150" height="85" rx="18" fill="#1e293b" stroke="#505f78" stroke-width="2"/>
<text x="455" y="875" class="badge">🍎 macOS</text><text x="455" y="903" class="small">Clean OSINT</text>
<rect x="620" y="835" width="150" height="85" rx="18" fill="#1e293b" stroke="#505f78" stroke-width="2"/>
<text x="635" y="875" class="badge">🐦 Parrot</text><text x="635" y="903" class="small">Anonymous OSINT</text>
<rect x="800" y="835" width="150" height="85" rx="18" fill="#1e293b" stroke="#505f78" stroke-width="2"/>
<text x="815" y="875" class="badge">🐉 Kali</text><text x="815" y="903" class="small">Mobile Attacker</text>
<rect x="980" y="835" width="150" height="85" rx="18" fill="#1e293b" stroke="#505f78" stroke-width="2"/>
<text x="995" y="875" class="badge">📡 Dragon OS</text><text x="995" y="903" class="small">RF / SDR Future</text>

<text x="70" y="965" class="small">Built for portfolio-ready cybersecurity lab storytelling: roles, telemetry, attack paths, and future RF expansion.</text>
</svg>