<?xml version="1.0" encoding="UTF-8"?>
<svg xmlns="http://www.w3.org/2000/svg" width="800" viewBox="0 0 800 980" font-family="'Segoe UI', 'Helvetica Neue', Arial, sans-serif">

  <defs>
    <marker id="arrow" viewBox="0 0 10 10" refX="8" refY="5" markerWidth="6" markerHeight="6" orient="auto-start-reverse">
      <path d="M2 1L8 5L2 9" fill="none" stroke="context-stroke" stroke-width="1.5" stroke-linecap="round" stroke-linejoin="round"/>
    </marker>
    <marker id="arrow-green" viewBox="0 0 10 10" refX="8" refY="5" markerWidth="6" markerHeight="6" orient="auto-start-reverse">
      <path d="M2 1L8 5L2 9" fill="none" stroke="#1D9E75" stroke-width="1.5" stroke-linecap="round" stroke-linejoin="round"/>
    </marker>
    <marker id="arrow-red" viewBox="0 0 10 10" refX="8" refY="5" markerWidth="6" markerHeight="6" orient="auto-start-reverse">
      <path d="M2 1L8 5L2 9" fill="none" stroke="#993C1D" stroke-width="1.5" stroke-linecap="round" stroke-linejoin="round"/>
    </marker>
  </defs>

  <!-- Background -->
  <rect width="800" height="980" fill="#F8F8F6" rx="0"/>

  <!-- Title block -->
  <rect x="0" y="0" width="800" height="54" fill="#2C2C2A"/>
  <text x="28" y="24" font-size="15" font-weight="600" fill="#F1EFE8" dominant-baseline="central">The Burrow — Home Cybersecurity Lab</text>
  <text x="28" y="42" font-size="11" fill="#888780" dominant-baseline="central">Network topology · April 2026 · github.com/jkgibson-source/cybersecurity-home-lab</text>

  <!-- ── INTERNET / GATEWAY ── -->
  <rect x="270" y="76" width="260" height="44" rx="8" fill="#D3D1C7" stroke="#888780" stroke-width="0.5"/>
  <text x="400" y="94" font-size="13" font-weight="600" fill="#2C2C2A" text-anchor="middle" dominant-baseline="central">AT&amp;T BGW320-505</text>
  <text x="400" y="110" font-size="11" fill="#5F5E5A" text-anchor="middle" dominant-baseline="central">Fiber gateway · IP passthrough</text>

  <!-- Gateway → Router -->
  <line x1="400" y1="120" x2="400" y2="148" stroke="#888780" stroke-width="1" marker-end="url(#arrow)"/>

  <!-- ── ROUTER ── -->
  <rect x="250" y="148" width="300" height="44" rx="8" fill="#D3D1C7" stroke="#888780" stroke-width="0.5"/>
  <text x="400" y="166" font-size="13" font-weight="600" fill="#2C2C2A" text-anchor="middle" dominant-baseline="central">Talon — Netgear Nighthawk RS100</text>
  <text x="400" y="182" font-size="11" fill="#5F5E5A" text-anchor="middle" dominant-baseline="central">SSID: Puffin · Lab network: 10.0.0.0/24</text>

  <!-- Router → Burrow -->
  <line x1="400" y1="192" x2="400" y2="220" stroke="#888780" stroke-width="1" marker-end="url(#arrow)"/>

  <!-- ── BURROW CONTAINER ── -->
  <rect x="24" y="220" width="752" height="556" rx="14" fill="#E1F5EE" fill-opacity="0.35" stroke="#0F6E56" stroke-width="1" stroke-dasharray="6 3"/>
  <text x="40" y="240" font-size="12" font-weight="600" fill="#085041" dominant-baseline="central">THE BURROW · 10.0.0.0/24</text>

  <!-- ── EAGLEEYE11 ── -->
  <rect x="40" y="256" width="272" height="166" rx="10" fill="#EEEDFE" stroke="#534AB7" stroke-width="1"/>
  <rect x="40" y="256" width="272" height="28" rx="10" fill="#534AB7"/>
  <rect x="40" y="270" width="272" height="14" fill="#534AB7"/>
  <text x="176" y="270" font-size="13" font-weight="600" fill="#F1EFE8" text-anchor="middle" dominant-baseline="central">EagleEye11</text>
  <text x="176" y="297" font-size="11" fill="#3C3489" text-anchor="middle" dominant-baseline="central">Mac mini M1 · macOS · 10.0.0.112</text>
  <text x="52" y="316" font-size="11" fill="#26215C" dominant-baseline="central">▸ Splunk Enterprise 10.2.1 (Bird's Nest)</text>
  <text x="52" y="333" font-size="11" fill="#26215C" dominant-baseline="central">▸ Wazuh Manager v4.9.0 (Docker)</text>
  <text x="52" y="350" font-size="11" fill="#26215C" dominant-baseline="central">▸ Hermes Agent (Nous Research)</text>
  <text x="52" y="367" font-size="11" fill="#26215C" dominant-baseline="central">▸ Ollama: llama3.2 · gemma3 · deepseek-r1</text>
  <text x="52" y="384" font-size="11" fill="#26215C" dominant-baseline="central">▸ Gemini CLI · OpenCode · Twingate · Tailscale</text>
  <!-- Role badge -->
  <rect x="196" y="258" width="100" height="16" rx="4" fill="#3C3489"/>
  <text x="246" y="267" font-size="10" fill="#CECBF6" text-anchor="middle" dominant-baseline="central">SIEM · Management</text>

  <!-- ── SKORPIOM ── -->
  <rect x="488" y="256" width="272" height="166" rx="10" fill="#FAECE7" stroke="#993C1D" stroke-width="1"/>
  <rect x="488" y="256" width="272" height="28" rx="10" fill="#993C1D"/>
  <rect x="488" y="270" width="272" height="14" fill="#993C1D"/>
  <text x="624" y="270" font-size="13" font-weight="600" fill="#F1EFE8" text-anchor="middle" dominant-baseline="central">SkorpiOm</text>
  <text x="624" y="297" font-size="11" fill="#712B13" text-anchor="middle" dominant-baseline="central">MBP A1286 · Kali Linux · 10.0.0.210</text>
  <text x="500" y="316" font-size="11" fill="#4A1B0C" dominant-baseline="central">▸ Splunk UF → EagleEye11:9997</text>
  <text x="500" y="333" font-size="11" fill="#4A1B0C" dominant-baseline="central">▸ Wazuh agent</text>
  <text x="500" y="350" font-size="11" fill="#4A1B0C" dominant-baseline="central">▸ Nessus Essentials · OpenVAS/Greenbone</text>
  <text x="500" y="367" font-size="11" fill="#4A1B0C" dominant-baseline="central">▸ Metasploit + MetasploitMCP</text>
  <text x="500" y="384" font-size="11" fill="#4A1B0C" dominant-baseline="central">▸ Claude Desktop · Ollama · Twingate</text>
  <rect x="580" y="258" width="86" height="16" rx="4" fill="#712B13"/>
  <text x="623" y="267" font-size="10" fill="#F5C4B3" text-anchor="middle" dominant-baseline="central">Attack · Scanner</text>

  <!-- EagleEye11 ↔ SkorpiOm -->
  <line x1="312" y1="339" x2="488" y2="339" stroke="#1D9E75" stroke-width="1" marker-end="url(#arrow-green)"/>
  <text x="400" y="330" font-size="10" fill="#085041" text-anchor="middle">Splunk UF · Wazuh</text>

  <!-- ── KRYPTON1T3 ── -->
  <rect x="40" y="446" width="272" height="180" rx="10" fill="#E6F1FB" stroke="#185FA5" stroke-width="1"/>
  <rect x="40" y="446" width="272" height="28" rx="10" fill="#185FA5"/>
  <rect x="40" y="460" width="272" height="14" fill="#185FA5"/>
  <text x="176" y="460" font-size="13" font-weight="600" fill="#F1EFE8" text-anchor="middle" dominant-baseline="central">Krypton1t3</text>
  <text x="176" y="487" font-size="11" fill="#0C447C" text-anchor="middle" dominant-baseline="central">MBP A1398 · Fedora Security Lab 43</text>
  <text x="52" y="506" font-size="11" fill="#042C53" dominant-baseline="central">▸ Splunk UF → EagleEye11:9997</text>
  <text x="52" y="523" font-size="11" fill="#042C53" dominant-baseline="central">▸ Wazuh agent (enrolled)</text>
  <text x="52" y="540" font-size="11" fill="#042C53" dominant-baseline="central">▸ Ollama: llama3.2:3b (CPU)</text>
  <text x="52" y="557" font-size="11" fill="#042C53" dominant-baseline="central">▸ BCM4360 WiFi · broadcom-wl/DKMS</text>
  <text x="52" y="574" font-size="11" fill="#042C53" dominant-baseline="central">▸ virt-manager + libvirtd (untested)</text>
  <text x="52" y="591" font-size="11" fill="#042C53" dominant-baseline="central">▸ Tailscale: 100.103.171.45</text>
  <rect x="188" y="448" width="108" height="16" rx="4" fill="#0C447C"/>
  <text x="242" y="457" font-size="10" fill="#B5D4F4" text-anchor="middle" dominant-baseline="central">Defensive · Logging</text>

  <!-- EagleEye11 → Krypton1t3 -->
  <line x1="176" y1="422" x2="176" y2="446" stroke="#1D9E75" stroke-width="1" marker-end="url(#arrow-green)"/>

  <!-- ── JYNX13 ── -->
  <rect x="488" y="446" width="272" height="180" rx="10" fill="#FAEEDA" stroke="#854F0B" stroke-width="1"/>
  <rect x="488" y="446" width="272" height="28" rx="10" fill="#BA7517"/>
  <rect x="488" y="460" width="272" height="14" fill="#BA7517"/>
  <text x="624" y="460" font-size="13" font-weight="600" fill="#F1EFE8" text-anchor="middle" dominant-baseline="central">Jynx13</text>
  <text x="624" y="487" font-size="11" fill="#633806" text-anchor="middle" dominant-baseline="central">MBA 2017 · macOS Monterey</text>
  <text x="500" y="506" font-size="11" fill="#412402" dominant-baseline="central">▸ SuperStick: Parrot OS · Kali · DragonOS</text>
  <text x="500" y="523" font-size="11" fill="#412402" dominant-baseline="central">▸ Parrot OS: encrypted persistence (LUKS1)</text>
  <text x="500" y="540" font-size="11" fill="#412402" dominant-baseline="central">▸ Ollama (llama3.2:1b) · HexStrike AI</text>
  <text x="500" y="557" font-size="11" fill="#412402" dominant-baseline="central">▸ OSINT: theHarvester · sherlock · nmap</text>
  <text x="500" y="574" font-size="11" fill="#412402" dominant-baseline="central">▸ Tailscale: 100.108.182.39 (macOS)</text>
  <text x="500" y="591" font-size="11" fill="#412402" dominant-baseline="central">▸ Parrot node: 100.95.26.111</text>
  <rect x="580" y="448" width="94" height="16" rx="4" fill="#633806"/>
  <text x="627" y="457" font-size="10" fill="#FAC775" text-anchor="middle" dominant-baseline="central">Portable · OSINT</text>

  <!-- ── METASPLOITABLE2 ── -->
  <rect x="488" y="646" width="272" height="68" rx="10" fill="#FCEBEB" stroke="#A32D2D" stroke-width="1"/>
  <rect x="488" y="646" width="272" height="28" rx="10" fill="#A32D2D"/>
  <rect x="488" y="660" width="272" height="14" fill="#A32D2D"/>
  <text x="624" y="660" font-size="13" font-weight="600" fill="#F1EFE8" text-anchor="middle" dominant-baseline="central">Metasploitable2</text>
  <text x="624" y="685" font-size="11" fill="#501313" text-anchor="middle" dominant-baseline="central">VirtualBox VM on SkorpiOm</text>
  <text x="624" y="701" font-size="11" fill="#501313" text-anchor="middle" dominant-baseline="central">Host-only network · 192.168.56.101</text>
  <rect x="570" y="648" width="84" height="16" rx="4" fill="#791F1F"/>
  <text x="612" y="657" font-size="10" fill="#F7C1C1" text-anchor="middle" dominant-baseline="central">Pentest Target</text>

  <!-- SkorpiOm → Metasploitable2 -->
  <line x1="624" y1="422" x2="624" y2="646" stroke="#993C1D" stroke-width="1" stroke-dasharray="4 3" marker-end="url(#arrow-red)"/>

  <!-- ── MOBILE NODES ── -->
  <rect x="40" y="648" width="272" height="80" rx="10" fill="#F1EFE8" stroke="#5F5E5A" stroke-width="1"/>
  <rect x="40" y="648" width="272" height="28" rx="10" fill="#5F5E5A"/>
  <rect x="40" y="662" width="272" height="14" fill="#5F5E5A"/>
  <text x="176" y="662" font-size="13" font-weight="600" fill="#F1EFE8" text-anchor="middle" dominant-baseline="central">Mobile nodes</text>
  <text x="52" y="690" font-size="11" fill="#2C2C2A" dominant-baseline="central">▸ SolSkorp_13 · iPhone 13 · Tailscale</text>
  <text x="52" y="707" font-size="11" fill="#2C2C2A" dominant-baseline="central">▸ SkorpiOm11 · iPhone 11 Pro · Tailscale</text>
  <text x="52" y="724" font-size="11" fill="#2C2C2A" dominant-baseline="central">▸ BirdPad · iPad mini 4 · Tailscale</text>

  <!-- ── TAILSCALE MESH ── -->
  <rect x="24" y="792" width="752" height="44" rx="10" fill="#9FE1CB" fill-opacity="0.35" stroke="#0F6E56" stroke-width="1"/>
  <text x="400" y="808" font-size="12" font-weight="600" fill="#04342C" text-anchor="middle" dominant-baseline="central">Tailscale Mesh</text>
  <text x="400" y="824" font-size="11" fill="#085041" text-anchor="middle" dominant-baseline="central">EagleEye11 · SkorpiOm · Krypton1t3 · Jynx13 (macOS + Parrot) · SolSkorp_13 · SkorpiOm11 · BirdPad</text>

  <!-- ── BIRD'S NEST CALLOUT ── -->
  <rect x="24" y="852" width="272" height="44" rx="8" fill="#EEEDFE" stroke="#534AB7" stroke-width="0.5"/>
  <text x="160" y="869" font-size="12" font-weight="600" fill="#3C3489" text-anchor="middle" dominant-baseline="central">Bird's Nest (external drive)</text>
  <text x="160" y="885" font-size="11" fill="#534AB7" text-anchor="middle" dominant-baseline="central">Splunk + Wazuh Docker · on EagleEye11</text>

  <!-- ── LEGEND ── -->
  <rect x="312" y="852" width="464" height="44" rx="8" fill="#F1EFE8" stroke="#D3D1C7" stroke-width="0.5"/>
  <rect x="324" y="863" width="10" height="10" rx="2" fill="#534AB7"/>
  <text x="338" y="869" font-size="10" fill="#2C2C2A" dominant-baseline="central">SIEM/Mgmt</text>
  <rect x="416" y="863" width="10" height="10" rx="2" fill="#993C1D"/>
  <text x="430" y="869" font-size="10" fill="#2C2C2A" dominant-baseline="central">Attack</text>
  <rect x="480" y="863" width="10" height="10" rx="2" fill="#185FA5"/>
  <text x="494" y="869" font-size="10" fill="#2C2C2A" dominant-baseline="central">Defensive</text>
  <rect x="556" y="863" width="10" height="10" rx="2" fill="#BA7517"/>
  <text x="570" y="869" font-size="10" fill="#2C2C2A" dominant-baseline="central">Portable</text>
  <rect x="624" y="863" width="10" height="10" rx="2" fill="#A32D2D"/>
  <text x="638" y="869" font-size="10" fill="#2C2C2A" dominant-baseline="central">Target</text>
  <rect x="324" y="881" width="10" height="10" rx="2" fill="#0F6E56"/>
  <text x="338" y="887" font-size="10" fill="#2C2C2A" dominant-baseline="central">Network boundary</text>
  <rect x="448" y="881" width="10" height="10" rx="2" fill="#5F5E5A"/>
  <text x="462" y="887" font-size="10" fill="#2C2C2A" dominant-baseline="central">Mobile/peripheral</text>

  <!-- ── FOOTER ── -->
  <rect x="0" y="948" width="800" height="32" fill="#2C2C2A"/>
  <text x="400" y="964" font-size="10" fill="#888780" text-anchor="middle" dominant-baseline="central">jkgibson-source · The Burrow Home Lab · April 2026 · All nodes on dedicated lab network, isolated from home network</text>

</svg>
